<?xml version="1.0" standalone="no"?>
<!DOCTYPE svg PUBLIC "-//W3C//DTD SVG 20010904//EN"
 "http://www.w3.org/TR/2001/REC-SVG-20010904/DTD/svg10.dtd">
<svg version="1.0" xmlns="http://www.w3.org/2000/svg"
 width="236.000000pt" height="236.000000pt" viewBox="0 0 236.000000 236.000000"
 preserveAspectRatio="xMidYMid meet">
<metadata>
Created by potrace 1.14, written by Peter Selinger 2001-2017
</metadata>
<g transform="translate(0.000000,236.000000) scale(0.100000,-0.100000)"
fill="#000000" stroke="none">
<path d="M1035 2295 c-222 -35 -417 -151 -552 -329 -62 -82 -129 -224 -150
-318 -10 -43 -21 -78 -25 -78 -5 0 -8 4 -8 9 0 16 -58 33 -90 26 -40 -9 -45
-23 -60 -178 -17 -174 -8 -376 25 -552 53 -286 82 -334 318 -528 123 -101 152
-146 144 -223 l-6 -54 231 0 230 0 -4 158 -3 158 -37 75 c-21 41 -53 91 -73
112 -19 21 -35 39 -35 41 0 2 30 -3 68 -10 85 -17 238 -17 323 0 l66 12 -41
-50 c-23 -28 -55 -80 -71 -116 -29 -62 -30 -72 -33 -223 l-3 -157 228 0 229 0
-3 58 c-6 79 14 110 133 210 253 211 279 256 335 572 19 101 23 162 23 320 0
186 -14 344 -33 363 -5 5 -27 11 -49 14 -34 5 -45 1 -65 -19 l-24 -24 -12 61
c-60 290 -284 541 -566 634 -93 31 -215 52 -288 50 -23 -1 -78 -7 -122 -14z
m175 -268 c0 -69 -2 -75 -25 -85 -13 -6 -27 -23 -31 -37 -14 -56 -29 -17 -34
88 l-5 107 48 0 47 0 0 -73z m288 -61 c-11 -28 -35 -92 -54 -141 l-35 -91 -35
4 c-18 2 -34 6 -34 9 0 5 77 277 85 301 3 9 16 6 49 -10 l44 -21 -20 -51z
m-560 -33 c26 -90 28 -103 13 -103 -13 0 -12 -4 6 -18 12 -9 25 -29 28 -44 6
-24 4 -28 -13 -28 -11 0 -27 -2 -34 -5 -11 -4 -29 31 -68 130 -29 74 -51 137
-49 139 19 17 75 44 80 38 4 -4 20 -53 37 -109z m262 -28 c0 -8 -4 -15 -10
-15 -5 0 -10 7 -10 15 0 8 5 15 10 15 6 0 10 -7 10 -15z m-46 -57 c5 -10 7
-10 12 0 3 6 12 12 20 12 10 0 14 -14 14 -50 l0 -50 -35 0 -35 0 0 50 c0 47
11 65 24 38z m566 -24 l19 -30 -95 -112 c-90 -106 -122 -130 -139 -102 -3 5
-1 20 6 32 25 48 173 248 181 246 5 -2 18 -17 28 -34z m-890 -234 c0 -15 -7
-20 -27 -19 -23 0 -45 20 -115 101 -94 107 -94 110 -50 160 14 16 22 9 103
-102 49 -66 89 -129 89 -140z m-560 -10 c22 -12 44 -72 35 -100 -10 -32 13
-204 39 -285 20 -64 22 -74 8 -62 -49 45 -127 44 -169 -1 l-26 -27 5 173 c4
142 8 175 22 190 9 11 22 42 28 70 13 53 23 61 58 42z m1854 -32 c4 -23 16
-57 27 -74 17 -28 21 -57 26 -205 l6 -173 -31 35 c-26 29 -37 34 -75 34 -32 0
-55 -7 -78 -24 -28 -21 -31 -22 -24 -5 28 68 47 161 51 259 6 135 9 150 34
175 34 34 56 26 64 -22z m-1546 -50 c-18 -9 -41 -17 -52 -18 -16 0 -18 5 -12
38 3 20 6 43 6 49 0 7 20 -1 45 -19 l46 -32 -33 -18z m1251 10 c1 -15 -3 -29
-8 -33 -12 -7 -93 25 -89 36 2 4 21 21 43 37 39 28 40 28 47 8 3 -12 6 -33 7
-48z m-1642 20 c-3 -8 -6 -5 -6 6 -1 11 2 17 5 13 3 -3 4 -12 1 -19z m1001
-160 c3 -49 -12 -93 -29 -83 -5 4 -9 35 -9 71 0 57 2 65 18 62 13 -2 18 -15
20 -50z m-88 17 c21 -55 23 -75 7 -75 -12 0 -47 69 -47 93 0 18 32 4 40 -18z
m177 13 c-2 -7 -10 -30 -18 -50 -7 -21 -19 -38 -26 -38 -16 0 -16 0 -2 56 9
33 16 44 31 44 12 0 18 -5 15 -12z m-264 -40 c22 -31 26 -43 16 -49 -14 -8
-91 70 -82 84 11 18 40 3 66 -35z m370 36 c11 -11 -53 -84 -74 -84 -16 0 -15
5 13 45 30 43 47 53 61 39z m-413 -136 c0 -10 -2 -18 -4 -18 -7 0 -196 102
-196 105 0 3 15 8 33 13 29 8 39 4 99 -37 40 -27 68 -53 68 -63z m588 87 c7
-7 8 -6 -95 -63 -89 -48 -93 -50 -93 -28 0 35 114 109 154 101 16 -3 32 -7 34
-10z m-419 -69 c21 -11 30 -11 57 0 46 19 108 18 132 -3 16 -14 25 -49 44
-158 l23 -140 -95 -2 c-52 0 -115 -1 -140 -1 -25 1 -84 1 -131 1 l-85 0 24
141 c19 109 29 145 44 159 24 20 92 22 127 3z m-353 -40 c83 -20 154 -36 157
-36 4 0 7 -9 7 -21 0 -17 -5 -20 -27 -15 -16 3 -98 15 -183 26 -154 21 -200
32 -200 48 0 12 63 41 80 37 8 -2 83 -20 166 -39z m974 19 c32 -16 38 -33 18
-40 -15 -6 -353 -55 -375 -55 -8 0 -13 7 -11 17 2 13 40 25 168 54 91 20 166
38 168 38 2 1 16 -6 32 -14z m-1436 -137 c43 -60 -6 -159 -62 -129 -22 12 -82
78 -82 90 0 5 9 20 21 35 28 35 100 38 123 4z m1808 5 c29 -35 28 -52 -4 -88
-37 -43 -63 -58 -87 -50 -38 12 -56 109 -25 139 22 22 97 21 116 -1z m-1204
-25 c-3 -19 -17 -25 -131 -48 l-128 -27 -20 29 c-12 16 -20 31 -18 32 4 3 234
31 282 35 13 1 18 -5 15 -21z m634 1 c70 -7 133 -16 139 -20 15 -9 -26 -70
-44 -64 -7 2 -64 16 -128 30 -107 24 -117 29 -122 51 -3 19 -1 23 12 20 9 -3
73 -10 143 -17z m-1110 -134 c83 -120 240 -253 355 -302 69 -28 149 -91 186
-145 61 -88 77 -151 77 -300 l0 -128 -208 0 -208 0 4 39 c8 87 -15 118 -205
279 -122 104 -173 165 -206 250 -20 49 -70 293 -62 300 3 3 5 1 5 -5 0 -6 32
-64 72 -129 40 -66 87 -153 105 -194 23 -52 34 -69 39 -57 8 21 -40 123 -115
247 -56 91 -101 173 -101 184 0 3 16 -6 36 -19 67 -46 121 -23 131 54 l6 44
24 -29 c13 -16 43 -56 65 -89z m1525 84 c3 -42 27 -77 59 -85 26 -7 50 2 92
32 12 9 22 12 22 6 0 -5 -39 -74 -86 -153 -107 -177 -155 -279 -131 -279 7 0
25 29 41 65 35 81 189 339 182 305 -3 -14 -12 -63 -21 -110 -19 -100 -40 -170
-68 -225 -27 -53 -121 -150 -239 -247 -115 -93 -148 -141 -148 -216 l0 -52
-204 0 -204 0 -4 113 c-9 235 65 364 266 463 123 61 238 152 309 245 31 41 73
95 92 122 20 26 37 47 38 47 1 0 3 -14 4 -31z m-1071 -52 c-3 -15 -24 -34 -57
-51 -42 -24 -55 -26 -75 -17 -13 6 -24 14 -24 19 0 8 152 81 159 76 2 -2 1
-14 -3 -27z m610 -23 l79 -36 -24 -19 c-25 -20 -25 -20 -117 39 -11 7 -29 52
-21 52 3 0 40 -16 83 -36z m-567 -94 c-31 -39 -32 -39 -61 -24 l-29 15 23 19
c21 16 46 24 86 29 7 0 -1 -17 -19 -39z m137 23 c-29 -78 -42 -103 -54 -98 -8
3 -20 5 -28 5 -10 0 -7 14 13 55 22 44 32 55 51 55 19 0 23 -4 18 -17z m223
-42 l30 -59 -29 -4 c-28 -4 -31 -1 -46 46 -9 28 -19 57 -22 64 -2 7 4 12 17
12 15 0 28 -15 50 -59z m137 18 l25 -23 -23 -13 c-32 -17 -30 -18 -70 31 l-37
43 40 -7 c22 -4 51 -18 65 -31z m-256 -31 c0 -56 -1 -58 -26 -58 -25 0 -26 2
-20 38 3 20 6 46 6 57 0 14 7 21 20 21 18 0 20 -7 20 -58z"/>
<path d="M1180 1186 c0 -9 -4 -16 -9 -16 -4 0 -8 -17 -7 -37 1 -34 -2 -38 -26
-41 -31 -4 -35 5 -13 34 8 10 15 22 15 26 0 9 -36 5 -46 -5 -4 -4 -22 -7 -39
-7 -18 0 -38 -7 -45 -15 -19 -23 6 -47 44 -44 17 2 37 0 44 -5 7 -4 27 -6 45
-5 17 1 42 -1 55 -5 15 -5 31 -2 47 8 19 12 25 13 25 4 1 -20 40 32 40 52 0
26 -11 50 -22 50 -5 0 -7 -12 -4 -27 3 -16 2 -35 -4 -43 -8 -12 -10 -9 -10 11
0 26 -25 57 -36 46 -3 -3 0 -15 6 -27 16 -30 6 -50 -26 -50 -28 0 -27 -2 -7
63 3 9 0 17 -6 17 -7 0 -10 4 -6 9 3 5 1 12 -5 16 -5 3 -10 -1 -10 -9z m-94
-71 c-22 -17 -56 -20 -56 -6 0 6 15 12 33 14 17 2 34 4 37 5 3 1 -4 -5 -14
-13z"/>
</g>
</svg>
